<?xml version="1.0" standalone="no"?>
<!DOCTYPE svg PUBLIC "-//W3C//DTD SVG 20010904//EN"
 "http://www.w3.org/TR/2001/REC-SVG-20010904/DTD/svg10.dtd">
<svg version="1.0" xmlns="http://www.w3.org/2000/svg"
 width="225.000000pt" height="225.000000pt" viewBox="0 0 225.000000 225.000000"
 preserveAspectRatio="xMidYMid meet">
<metadata>
Created by potrace 1.14, written by Peter Selinger 2001-2017
</metadata>
<g transform="translate(0.000000,225.000000) scale(0.100000,-0.100000)"
fill="#000000" stroke="none">
<path d="M995 2153 c-338 -46 -648 -267 -793 -566 -86 -175 -113 -301 -108
-492 13 -483 345 -879 824 -984 127 -28 332 -23 463 12 358 94 636 366 741
727 42 144 46 356 9 515 -61 263 -239 504 -476 648 -83 49 -225 107 -300 122
-108 22 -271 30 -360 18z"/>
</g>
</svg>
